<svg xmlns:dc="http://purl.org/dc/elements/1.1/" xmlns:cc="http://creativecommons.org/ns#" xmlns:rdf="http://www.w3.org/1999/02/22-rdf-syntax-ns#" xmlns:svg="http://www.w3.org/2000/svg" xmlns="http://www.w3.org/2000/svg" viewBox="0 0 180 180"><metadata><rdf:RDF><cc:Work><dc:format>image/svg+xml</dc:format><dc:type rdf:resource="http://purl.org/dc/dcmitype/StillImage"/><dc:title>Bottts</dc:title><dc:creator><cc:Agent><dc:title>Pablo Stanley</dc:title></cc:Agent></dc:creator><dc:source>https://bottts.com/</dc:source><cc:license rdf:resource="https://bottts.com/"/><dc:contributor><cc:Agent><dc:title>Florian Körner</dc:title></cc:Agent></dc:contributor></cc:Work></rdf:RDF></metadata><mask id="avatarsRadiusMask"><rect width="180" height="180" rx="0" ry="0" x="0" y="0" fill="#fff"/></mask><g mask="url(#avatarsRadiusMask)"><g transform="translate(0, 66)"><path fill-rule="evenodd" clip-rule="evenodd" d="M14.9809 20.9141C14 22.8393 14 25.3595 14 30.4V45.6C14 50.6405 14 53.1607 14.9809 55.0859C15.8438 56.7794 17.2206 58.1562 18.9141 59.0191C20.8393 60 23.3595 60 28.4 60H35.6C40.6405 60 43.1607 60 45.0859 59.0191C46.7794 58.1562 48.1562 56.7794 49.0191 55.0859C50 53.1607 50 50.6405 50 45.6V30.4C50 25.3595 50 22.8393 49.0191 20.9141C48.1562 19.2206 46.7794 17.8438 45.0859 16.9809C43.1607 16 40.6405 16 35.6 16H28.4C23.3595 16 20.8393 16 18.9141 16.9809C17.2206 17.8438 15.8438 19.2206 14.9809 20.9141ZM130.981 20.9141C130 22.8393 130 25.3595 130 30.4V45.6C130 50.6405 130 53.1607 130.981 55.0859C131.844 56.7794 133.221 58.1562 134.914 59.0191C136.839 60 139.36 60 144.4 60H151.6C156.64 60 159.161 60 161.086 59.0191C162.779 58.1562 164.156 56.7794 165.019 55.0859C166 53.1607 166 50.6405 166 45.6V30.4C166 25.3595 166 22.8393 165.019 20.9141C164.156 19.2206 162.779 17.8438 161.086 16.9809C159.161 16 156.64 16 151.6 16H144.4C139.36 16 136.839 16 134.914 16.9809C133.221 17.8438 131.844 19.2206 130.981 20.9141Z" fill="#0076DE"/><mask id="sidesSquareMask0" mask-type="alpha" maskUnits="userSpaceOnUse" x="14" y="16" width="152" height="44"><path fill-rule="evenodd" clip-rule="evenodd" d="M14.9809 20.9141C14 22.8393 14 25.3595 14 30.4V45.6C14 50.6405 14 53.1607 14.9809 55.0859C15.8438 56.7794 17.2206 58.1562 18.9141 59.0191C20.8393 60 23.3595 60 28.4 60H35.6C40.6405 60 43.1607 60 45.0859 59.0191C46.7794 58.1562 48.1562 56.7794 49.0191 55.0859C50 53.1607 50 50.6405 50 45.6V30.4C50 25.3595 50 22.8393 49.0191 20.9141C48.1562 19.2206 46.7794 17.8438 45.0859 16.9809C43.1607 16 40.6405 16 35.6 16H28.4C23.3595 16 20.8393 16 18.9141 16.9809C17.2206 17.8438 15.8438 19.2206 14.9809 20.9141ZM130.981 20.9141C130 22.8393 130 25.3595 130 30.4V45.6C130 50.6405 130 53.1607 130.981 55.0859C131.844 56.7794 133.221 58.1562 134.914 59.0191C136.839 60 139.36 60 144.4 60H151.6C156.64 60 159.161 60 161.086 59.0191C162.779 58.1562 164.156 56.7794 165.019 55.0859C166 53.1607 166 50.6405 166 45.6V30.4C166 25.3595 166 22.8393 165.019 20.9141C164.156 19.2206 162.779 17.8438 161.086 16.9809C159.161 16 156.64 16 151.6 16H144.4C139.36 16 136.839 16 134.914 16.9809C133.221 17.8438 131.844 19.2206 130.981 20.9141Z" fill="white"/></mask><g mask="url(#sidesSquareMask0)"><rect width="180" height="76" fill="#D4E157"/><rect y="38" width="180" height="38" fill="black" fill-opacity="0.1"/></g></g><g transform="translate(41, 0)"><g filter="url(#topGlowingBulb02Filter0)"><path fill-rule="evenodd" clip-rule="evenodd" d="M30 33C30 21.9543 38.9543 13 50 13V13C61.0457 13 70 21.9543 70 33V44H30V33Z" fill="white" fill-opacity="0.3"/></g><path fill-rule="evenodd" clip-rule="evenodd" d="M50 36C52.2091 36 54 35.028 54 31.7143C54 28.4006 52.2091 24 50 24C47.7909 24 46 28.4006 46 31.7143C46 35.028 47.7909 36 50 36Z" fill="white" fill-opacity="0.6"/><path d="M50 14.5C49.4477 14.5 49 14.9477 49 15.5C49 16.0523 49.4477 16.5 50 16.5V14.5ZM61.6941 21.6875C62.0649 22.0968 62.6973 22.1281 63.1066 21.7573C63.5159 21.3865 63.5471 20.7541 63.1763 20.3448L61.6941 21.6875ZM65.7595 24.0473C65.5035 23.5579 64.8993 23.3686 64.4099 23.6246C63.9205 23.8806 63.7313 24.4848 63.9873 24.9742L65.7595 24.0473ZM65.4248 28.9559C65.5404 29.4959 66.0719 29.84 66.6119 29.7244C67.152 29.6088 67.4961 29.0773 67.3805 28.5373L65.4248 28.9559ZM50 16.5C54.6375 16.5 58.8065 18.4999 61.6941 21.6875L63.1763 20.3448C59.9256 16.7563 55.2256 14.5 50 14.5V16.5ZM63.9873 24.9742C64.6357 26.2139 65.1239 27.5501 65.4248 28.9559L67.3805 28.5373C67.0411 26.9518 66.4904 25.4448 65.7595 24.0473L63.9873 24.9742Z" fill="white"/><rect x="20" y="36" width="60" height="16" rx="1" fill="#D4E157"/><defs><filter id="topGlowingBulb02Filter0" x="22" y="5" width="56" height="47" filterUnits="userSpaceOnUse" color-interpolation-filters="sRGB"><feFlood flood-opacity="0" result="BackgroundImageFix"/><feColorMatrix in="SourceAlpha" type="matrix" values="0 0 0 0 0 0 0 0 0 0 0 0 0 0 0 0 0 0 127 0"/><feOffset/><feGaussianBlur stdDeviation="4"/><feColorMatrix type="matrix" values="0 0 0 0 1 0 0 0 0 1 0 0 0 0 1 0 0 0 0.5 0"/><feBlend mode="normal" in2="BackgroundImageFix" result="effect1_dropShadow"/><feBlend mode="normal" in="SourceGraphic" in2="effect1_dropShadow" result="shape"/><feColorMatrix in="SourceAlpha" type="matrix" values="0 0 0 0 0 0 0 0 0 0 0 0 0 0 0 0 0 0 127 0" result="hardAlpha"/><feOffset/><feGaussianBlur stdDeviation="2"/><feComposite in2="hardAlpha" operator="arithmetic" k2="-1" k3="1"/><feColorMatrix type="matrix" values="0 0 0 0 1 0 0 0 0 1 0 0 0 0 1 0 0 0 0.5 0"/><feBlend mode="normal" in2="shape" result="effect2_innerShadow"/></filter></defs></g><g transform="translate(25, 44)"><path fill-rule="evenodd" clip-rule="evenodd" d="M0 31C0 31.0205 0.0141049 30.8164 0 30C0.183375 29.5235 0.402009 28.5029 1 27C1.82671 23.944 3.7804 20.4435 7 17C16.6944 6.60017 35.1724 0 65 0C94.8276 0 113.306 6.60036 123 17C126.22 20.4435 128.173 23.944 129 27C129.598 28.5029 129.817 29.5236 130 30C129.986 30.8164 130 31.0205 130 31V70C130 69.8964 129.972 70.5012 130 71C129.739 73.1171 129.471 75.0149 129 77C127.814 82.9912 125.606 88.911 122 94C112.283 110.337 94.2553 120 65 120C35.7448 120 17.7164 110.338 8 94C4.39414 88.9108 2.1865 82.9912 1 77C0.529043 75.0149 0.261028 73.1171 0 71C0.0282767 70.5466 6.49997e-05 69.6771 0 70V31Z" fill="#E1E6E8"/><mask id="faceRound02Mask0" mask-type="alpha" maskUnits="userSpaceOnUse" x="0" y="0" width="130" height="120"><path fill-rule="evenodd" clip-rule="evenodd" d="M0 31C0 31.0205 0.0141049 30.8164 0 30C0.183375 29.5235 0.402009 28.5029 1 27C1.82671 23.944 3.7804 20.4435 7 17C16.6944 6.60017 35.1724 0 65 0C94.8276 0 113.306 6.60036 123 17C126.22 20.4435 128.173 23.944 129 27C129.598 28.5029 129.817 29.5236 130 30C129.986 30.8164 130 31.0205 130 31V70C130 69.8964 129.972 70.5012 130 71C129.739 73.1171 129.471 75.0149 129 77C127.814 82.9912 125.606 88.911 122 94C112.283 110.337 94.2553 120 65 120C35.7448 120 17.7164 110.338 8 94C4.39414 88.9108 2.1865 82.9912 1 77C0.529043 75.0149 0.261028 73.1171 0 71C0.0282767 70.5466 6.49997e-05 69.6771 0 70V31Z" fill="white"/></mask><g mask="url(#faceRound02Mask0)"><rect x="-4" y="-2" width="138" height="124" fill="#C0CA33"/><path fill-rule="evenodd" clip-rule="evenodd" d="M15 0H11V18H15V0ZM23 0H19V30V34H23H72.416C73.1876 35.7659 74.9497 37 77 37C79.7614 37 82 34.7614 82 32C82 29.2386 79.7614 27 77 27C74.9497 27 73.1876 28.2341 72.416 30H23V0Z" fill="black" fill-opacity="0.1"/><path fill-rule="evenodd" clip-rule="evenodd" d="M122 34.584C123.766 33.8124 125 32.0503 125 30C125 27.2386 122.761 25 120 25C117.239 25 115 27.2386 115 30C115 32.0503 116.234 33.8124 118 34.584V60V64H122H141V60H122V34.584Z" fill="white" fill-opacity="0.2"/><path fill-rule="evenodd" clip-rule="evenodd" d="M114 46H110V68V72H114H141V68H114V46Z" fill="black" fill-opacity="0.2"/><path fill-rule="evenodd" clip-rule="evenodd" d="M27 103.584C25.2341 102.812 24 101.05 24 99C24 96.2386 26.2386 94 29 94C31.7614 94 34 96.2386 34 99C34 101.05 32.7659 102.812 31 103.584V129V133H27H8V129H27V103.584Z" fill="black" fill-opacity="0.2"/></g></g><g transform="translate(52, 124)"><rect x="4" y="4" width="68" height="24" rx="5" fill="black" fill-opacity="0.2"/><rect x="8" y="8" width="60" height="16" rx="2" fill="black" fill-opacity="0.8"/><path d="M9 17H20L22 13L25 20L29 12L31 21L34 10L37 20L40 17H55L58 13L60 20L63 17H67" stroke="#4EFAC9" stroke-width="2" stroke-linecap="round" stroke-linejoin="round"/></g><g transform="translate(38, 76)"><path fill-rule="evenodd" clip-rule="evenodd" d="M53 0C87.7469 0 102.001 17.4742 102 31C101.999 44.5258 82.4108 48 53 48C23.9528 48 2 44.5258 2 31C2 17.4742 17.1142 0 53 0Z" fill="black" fill-opacity="0.8"/><path fill-rule="evenodd" clip-rule="evenodd" d="M28.8179 34.654C22.2912 33.3001 17.5833 28.3121 18.3026 23.513C19.0218 18.7139 24.8959 15.9211 31.4226 17.275C37.9493 18.629 42.6572 23.617 41.9379 28.416C41.2187 33.2151 35.3446 36.0079 28.8179 34.654Z" fill="#25A6F5"/><path fill-rule="evenodd" clip-rule="evenodd" d="M75.4226 34.654C68.8959 36.0079 63.0218 33.2151 62.3026 28.416C61.5833 23.617 66.2912 18.629 72.8179 17.275C79.3446 15.9211 85.2187 18.7139 85.9379 23.513C86.6572 28.3121 81.9493 33.3001 75.4226 34.654Z" fill="#25A6F5"/></g></g></svg>