<svg xmlns:dc="http://purl.org/dc/elements/1.1/" xmlns:cc="http://creativecommons.org/ns#" xmlns:rdf="http://www.w3.org/1999/02/22-rdf-syntax-ns#" xmlns:svg="http://www.w3.org/2000/svg" xmlns="http://www.w3.org/2000/svg" viewBox="0 0 180 180"><metadata><rdf:RDF><cc:Work><dc:format>image/svg+xml</dc:format><dc:type rdf:resource="http://purl.org/dc/dcmitype/StillImage"/><dc:title>Bottts</dc:title><dc:creator><cc:Agent><dc:title>Pablo Stanley</dc:title></cc:Agent></dc:creator><dc:source>https://bottts.com/</dc:source><cc:license rdf:resource="https://bottts.com/"/><dc:contributor><cc:Agent><dc:title>Florian Körner</dc:title></cc:Agent></dc:contributor></cc:Work></rdf:RDF></metadata><mask id="avatarsRadiusMask"><rect width="180" height="180" rx="0" ry="0" x="0" y="0" fill="#fff"/></mask><g mask="url(#avatarsRadiusMask)"><g transform="translate(0, 66)"><g opacity="0.9"><path fill-rule="evenodd" clip-rule="evenodd" d="M32.5 41C41.6127 41 49 32.9411 49 23C49 13.0589 41.6127 5 32.5 5C23.3873 5 16 13.0589 16 23C16 32.9411 23.3873 41 32.5 41Z" stroke="#2A3544" stroke-width="6"/><path d="M29.5152 36.7649C22.1017 41.0451 12.5101 38.3112 8.0918 30.6585" stroke="#2A3544" stroke-width="4"/><path fill-rule="evenodd" clip-rule="evenodd" d="M28 67C37.3888 67 45 60.5081 45 52.5C45 44.4919 37.3888 38 28 38C18.6112 38 12 44.4919 12 52.5C12 60.5081 18.6112 67 28 67Z" stroke="#2A3544" stroke-width="4"/><path d="M168.606 60.4234C164.326 53.0099 154.653 50.5817 147 55" stroke="#2A3544" stroke-width="4"/><path fill-rule="evenodd" clip-rule="evenodd" d="M148 38C157.389 38 165 31.0604 165 22.5C165 13.9396 157.389 7 148 7C138.611 7 132 13.9396 132 22.5C132 31.0604 138.611 38 148 38Z" stroke="#2A3544" stroke-width="6"/></g><path fill-rule="evenodd" clip-rule="evenodd" d="M145 0C143.895 0 143 0.89543 143 2V20C143 21.1046 143.895 22 145 22H157C158.105 22 159 21.1046 159 20V2C159 0.895431 158.105 0 157 0H145ZM23 27C21.8954 27 21 27.8954 21 29V47C21 48.1046 21.8954 49 23 49H35C36.1046 49 37 48.1046 37 47V29C37 27.8954 36.1046 27 35 27H23ZM24 60C22.8954 60 22 60.8954 22 62V70C22 71.1046 22.8954 72 24 72H36C37.1046 72 38 71.1046 38 70V62C38 60.8954 37.1046 60 36 60H24ZM143 44C143 42.8954 143.895 42 145 42H157C158.105 42 159 42.8954 159 44V62C159 63.1046 158.105 64 157 64H145C143.895 64 143 63.1046 143 62V44Z" fill="#273951"/><mask id="sidesCables01Mask0" mask-type="alpha" maskUnits="userSpaceOnUse" x="21" y="0" width="138" height="72"><path fill-rule="evenodd" clip-rule="evenodd" d="M145 0C143.895 0 143 0.89543 143 2V20C143 21.1046 143.895 22 145 22H157C158.105 22 159 21.1046 159 20V2C159 0.895431 158.105 0 157 0H145ZM23 27C21.8954 27 21 27.8954 21 29V47C21 48.1046 21.8954 49 23 49H35C36.1046 49 37 48.1046 37 47V29C37 27.8954 36.1046 27 35 27H23ZM24 60C22.8954 60 22 60.8954 22 62V70C22 71.1046 22.8954 72 24 72H36C37.1046 72 38 71.1046 38 70V62C38 60.8954 37.1046 60 36 60H24ZM143 44C143 42.8954 143.895 42 145 42H157C158.105 42 159 42.8954 159 44V62C159 63.1046 158.105 64 157 64H145C143.895 64 143 63.1046 143 62V44Z" fill="white"/></mask><g mask="url(#sidesCables01Mask0)"><rect width="180" height="76" fill="#9CCC65"/></g></g><g transform="translate(41, 0)"><g filter="url(#topGlowingBulb01Filter0)"><path fill-rule="evenodd" clip-rule="evenodd" d="M32 24C32 15.1634 39.1634 8 48 8H52C60.8366 8 68 15.1634 68 24V32C68 36.4183 64.4183 40 60 40H40C35.5817 40 32 36.4183 32 32V24Z" fill="white" fill-opacity="0.3"/></g><path d="M49 11.5C53.9315 11.5 58.366 13.6281 61.4352 17.0162" stroke="white" stroke-width="2" stroke-linecap="round"/><path fill-rule="evenodd" clip-rule="evenodd" d="M49.8284 29L40.8284 20L38 22.8284L48 32.8284V40H52V32.9706L62.1421 22.8284L59.3137 20L50.3137 29H49.8284Z" fill="white" fill-opacity="0.8"/><rect x="22" y="40" width="56" height="12" rx="1" fill="#9CCC65"/><defs><filter id="topGlowingBulb01Filter0" x="24" y="0" width="52" height="48" filterUnits="userSpaceOnUse" color-interpolation-filters="sRGB"><feFlood flood-opacity="0" result="BackgroundImageFix"/><feColorMatrix in="SourceAlpha" type="matrix" values="0 0 0 0 0 0 0 0 0 0 0 0 0 0 0 0 0 0 127 0"/><feOffset/><feGaussianBlur stdDeviation="4"/><feColorMatrix type="matrix" values="0 0 0 0 1 0 0 0 0 1 0 0 0 0 1 0 0 0 0.5 0"/><feBlend mode="normal" in2="BackgroundImageFix" result="effect1_dropShadow"/><feBlend mode="normal" in="SourceGraphic" in2="effect1_dropShadow" result="shape"/><feColorMatrix in="SourceAlpha" type="matrix" values="0 0 0 0 0 0 0 0 0 0 0 0 0 0 0 0 0 0 127 0" result="hardAlpha"/><feOffset/><feGaussianBlur stdDeviation="2"/><feComposite in2="hardAlpha" operator="arithmetic" k2="-1" k3="1"/><feColorMatrix type="matrix" values="0 0 0 0 1 0 0 0 0 1 0 0 0 0 1 0 0 0 0.5 0"/><feBlend mode="normal" in2="shape" result="effect2_innerShadow"/></filter></defs></g><g transform="translate(25, 44)"><path fill-rule="evenodd" clip-rule="evenodd" d="M0 18C0 8.05888 8.05888 0 18 0H112C121.941 0 130 8.05888 130 18V45.1483C130 49.6831 129.229 54.1848 127.72 58.4611L110.239 107.991C107.699 115.187 100.896 120 93.2647 120H36.7353C29.1036 120 22.3014 115.187 19.7614 107.991L2.28038 58.4611C0.771117 54.1848 0 49.6831 0 45.1483L0 18Z" fill="#0076DE"/><mask id="faceSquare03Mask0" mask-type="alpha" maskUnits="userSpaceOnUse" x="0" y="0" width="130" height="120"><path fill-rule="evenodd" clip-rule="evenodd" d="M0 18C0 8.05888 8.05888 0 18 0H112C121.941 0 130 8.05888 130 18V45.1483C130 49.6831 129.229 54.1848 127.72 58.4611L110.239 107.991C107.699 115.187 100.896 120 93.2647 120H36.7353C29.1036 120 22.3014 115.187 19.7614 107.991L2.28038 58.4611C0.771117 54.1848 0 49.6831 0 45.1483L0 18Z" fill="white"/></mask><g mask="url(#faceSquare03Mask0)"><rect x="-2" y="-2" width="134" height="124" fill="#7CB342"/><path fill-rule="evenodd" clip-rule="evenodd" d="M15 0H11V18H15V0ZM23 0H19V30V34H23H72.416C73.1876 35.7659 74.9497 37 77 37C79.7614 37 82 34.7614 82 32C82 29.2386 79.7614 27 77 27C74.9497 27 73.1876 28.2341 72.416 30H23V0Z" fill="black" fill-opacity="0.1"/><path fill-rule="evenodd" clip-rule="evenodd" d="M122 34.584C123.766 33.8124 125 32.0503 125 30C125 27.2386 122.761 25 120 25C117.239 25 115 27.2386 115 30C115 32.0503 116.234 33.8124 118 34.584V60V64H122H141V60H122V34.584Z" fill="white" fill-opacity="0.2"/><path fill-rule="evenodd" clip-rule="evenodd" d="M114 46H110V68V72H114H141V68H114V46Z" fill="black" fill-opacity="0.2"/><path fill-rule="evenodd" clip-rule="evenodd" d="M27 103.584C25.2341 102.812 24 101.05 24 99C24 96.2386 26.2386 94 29 94C31.7614 94 34 96.2386 34 99C34 101.05 32.7659 102.812 31 103.584V129V133H27H8V129H27V103.584Z" fill="black" fill-opacity="0.2"/></g></g><g transform="translate(52, 124)"><rect x="16" y="8" width="44" height="4" rx="2" fill="black" fill-opacity="0.8"/></g><g transform="translate(38, 76)"><path fill-rule="evenodd" clip-rule="evenodd" d="M52 48C65.2548 48 76 37.2548 76 24C76 10.7452 65.2548 0 52 0C38.7452 0 28 10.7452 28 24C28 37.2548 38.7452 48 52 48Z" fill="white" fill-opacity="0.4"/><path fill-rule="evenodd" clip-rule="evenodd" d="M52 44C63.0457 44 72 35.0457 72 24C72 12.9543 63.0457 4 52 4C40.9543 4 32 12.9543 32 24C32 35.0457 40.9543 44 52 44Z" fill="black" fill-opacity="0.8"/><path d="M64.5726 15.8153C64.8743 16.2779 65.4939 16.4082 65.9565 16.1064C66.419 15.8046 66.5494 15.185 66.2476 14.7225L64.5726 15.8153ZM61.5815 9.95547C61.1256 9.64384 60.5033 9.76084 60.1917 10.2168C59.88 10.6728 59.997 11.295 60.453 11.6067L61.5815 9.95547ZM56.3568 9.64222C56.8854 9.80237 57.4437 9.50373 57.6039 8.97518C57.764 8.44663 57.4654 7.88832 56.9368 7.72816L56.3568 9.64222ZM45.7206 8.19769C45.2074 8.40179 44.9569 8.98326 45.161 9.49645C45.3651 10.0096 45.9465 10.2602 46.4597 10.0561L45.7206 8.19769ZM41.7603 13.0388C42.1638 12.6617 42.1852 12.0289 41.8081 11.6254C41.431 11.2219 40.7981 11.2005 40.3947 11.5776L41.7603 13.0388ZM36.4567 17.1052C36.2325 17.6099 36.4599 18.2008 36.9646 18.425C37.4694 18.6492 38.0603 18.4218 38.2845 17.9171L36.4567 17.1052ZM66.2476 14.7225C65.0212 12.8427 63.433 11.2208 61.5815 9.95547L60.453 11.6067C62.0875 12.7238 63.49 14.1559 64.5726 15.8153L66.2476 14.7225ZM56.9368 7.72816C55.3733 7.25438 53.7155 7 52.0001 7V9C53.5169 9 54.9793 9.2248 56.3568 9.64222L56.9368 7.72816ZM52.0001 7C49.784 7 47.6646 7.42456 45.7206 8.19769L46.4597 10.0561C48.1724 9.37496 50.0413 9 52.0001 9V7ZM40.3947 11.5776C38.7378 13.1261 37.3906 15.0029 36.4567 17.1052L38.2845 17.9171C39.108 16.0633 40.2968 14.4066 41.7603 13.0388L40.3947 11.5776Z" fill="white" fill-opacity="0.9"/><path fill-rule="evenodd" clip-rule="evenodd" d="M52 34C57.5228 34 62 29.5228 62 24C62 18.4772 57.5228 14 52 14C46.4772 14 42 18.4772 42 24C42 29.5228 46.4772 34 52 34Z" fill="#C6080C"/><path fill-rule="evenodd" clip-rule="evenodd" d="M52 28C54.2091 28 56 26.2091 56 24C56 21.7909 54.2091 20 52 20C49.7909 20 48 21.7909 48 24C48 26.2091 49.7909 28 52 28Z" fill="#EE9337"/><path fill-rule="evenodd" clip-rule="evenodd" d="M52 25C52.5523 25 53 24.5523 53 24C53 23.4477 52.5523 23 52 23C51.4477 23 51 23.4477 51 24C51 24.5523 51.4477 25 52 25Z" fill="#F5F94F"/></g></g></svg>