<svg xmlns:dc="http://purl.org/dc/elements/1.1/" xmlns:cc="http://creativecommons.org/ns#" xmlns:rdf="http://www.w3.org/1999/02/22-rdf-syntax-ns#" xmlns:svg="http://www.w3.org/2000/svg" xmlns="http://www.w3.org/2000/svg" viewBox="0 0 180 180"><metadata><rdf:RDF><cc:Work><dc:format>image/svg+xml</dc:format><dc:type rdf:resource="http://purl.org/dc/dcmitype/StillImage"/><dc:title>Bottts</dc:title><dc:creator><cc:Agent><dc:title>Pablo Stanley</dc:title></cc:Agent></dc:creator><dc:source>https://bottts.com/</dc:source><cc:license rdf:resource="https://bottts.com/"/><dc:contributor><cc:Agent><dc:title>Florian Körner</dc:title></cc:Agent></dc:contributor></cc:Work></rdf:RDF></metadata><mask id="avatarsRadiusMask"><rect width="180" height="180" rx="0" ry="0" x="0" y="0" fill="#fff"/></mask><g mask="url(#avatarsRadiusMask)"><g transform="translate(0, 66)"><path fill-rule="evenodd" clip-rule="evenodd" d="M160 9H162V28H163.6C165.84 28 166.96 28 167.816 28.436C168.569 28.8195 169.181 29.4314 169.564 30.184C170 31.0397 170 32.1598 170 34.4V53.6C170 55.8402 170 56.9603 169.564 57.816C169.181 58.5686 168.569 59.1805 167.816 59.564C166.96 60 165.84 60 163.6 60H140.4C138.16 60 137.04 60 136.184 59.564C135.431 59.1805 134.819 58.5686 134.436 57.816C134 56.9603 134 55.8402 134 53.6V34.4C134 32.1598 134 31.0397 134.436 30.184C134.819 29.4314 135.431 28.8195 136.184 28.436C137.04 28 138.16 28 140.4 28H160V9ZM10 34.4C10 32.1598 10 31.0397 10.436 30.184C10.8195 29.4314 11.4314 28.8195 12.184 28.436C13.0397 28 14.1598 28 16.4 28H39.6C41.8402 28 42.9603 28 43.816 28.436C44.5686 28.8195 45.1805 29.4314 45.564 30.184C46 31.0397 46 32.1598 46 34.4V53.6C46 55.8402 46 56.9603 45.564 57.816C45.1805 58.5686 44.5686 59.1805 43.816 59.564C42.9603 60 41.8402 60 39.6 60H16.4C14.1598 60 13.0397 60 12.184 59.564C11.4314 59.1805 10.8195 58.5686 10.436 57.816C10 56.9603 10 55.8402 10 53.6V34.4Z" fill="#0076DE"/><mask id="sidesAntenna02Mask0" mask-type="alpha" maskUnits="userSpaceOnUse" x="10" y="9" width="160" height="51"><path fill-rule="evenodd" clip-rule="evenodd" d="M160 9H162V28H163.6C165.84 28 166.96 28 167.816 28.436C168.569 28.8195 169.181 29.4314 169.564 30.184C170 31.0397 170 32.1598 170 34.4V53.6C170 55.8402 170 56.9603 169.564 57.816C169.181 58.5686 168.569 59.1805 167.816 59.564C166.96 60 165.84 60 163.6 60H140.4C138.16 60 137.04 60 136.184 59.564C135.431 59.1805 134.819 58.5686 134.436 57.816C134 56.9603 134 55.8402 134 53.6V34.4C134 32.1598 134 31.0397 134.436 30.184C134.819 29.4314 135.431 28.8195 136.184 28.436C137.04 28 138.16 28 140.4 28H160V9ZM10 34.4C10 32.1598 10 31.0397 10.436 30.184C10.8195 29.4314 11.4314 28.8195 12.184 28.436C13.0397 28 14.1598 28 16.4 28H39.6C41.8402 28 42.9603 28 43.816 28.436C44.5686 28.8195 45.1805 29.4314 45.564 30.184C46 31.0397 46 32.1598 46 34.4V53.6C46 55.8402 46 56.9603 45.564 57.816C45.1805 58.5686 44.5686 59.1805 43.816 59.564C42.9603 60 41.8402 60 39.6 60H16.4C14.1598 60 13.0397 60 12.184 59.564C11.4314 59.1805 10.8195 58.5686 10.436 57.816C10 56.9603 10 55.8402 10 53.6V34.4Z" fill="white"/></mask><g mask="url(#sidesAntenna02Mask0)"><rect width="180" height="76" fill="#5C6BC0"/><rect y="38" width="180" height="38" fill="black" fill-opacity="0.1"/></g><rect x="160" y="8" width="2" height="20" fill="white" fill-opacity="0.4"/><path fill-rule="evenodd" clip-rule="evenodd" d="M161 9C163.209 9 165 7.20914 165 5C165 2.79086 163.209 1 161 1C158.791 1 157 2.79086 157 5C157 7.20914 158.791 9 161 9Z" fill="#E1E6E8"/><path fill-rule="evenodd" clip-rule="evenodd" d="M162 6C163.105 6 164 5.10457 164 4C164 2.89543 163.105 2 162 2C160.895 2 160 2.89543 160 4C160 5.10457 160.895 6 162 6Z" fill="white"/></g><g transform="translate(41, 0)"><g filter="url(#topGlowingBulb02Filter0)"><path fill-rule="evenodd" clip-rule="evenodd" d="M30 33C30 21.9543 38.9543 13 50 13V13C61.0457 13 70 21.9543 70 33V44H30V33Z" fill="white" fill-opacity="0.3"/></g><path fill-rule="evenodd" clip-rule="evenodd" d="M50 36C52.2091 36 54 35.028 54 31.7143C54 28.4006 52.2091 24 50 24C47.7909 24 46 28.4006 46 31.7143C46 35.028 47.7909 36 50 36Z" fill="white" fill-opacity="0.6"/><path d="M50 14.5C49.4477 14.5 49 14.9477 49 15.5C49 16.0523 49.4477 16.5 50 16.5V14.5ZM61.6941 21.6875C62.0649 22.0968 62.6973 22.1281 63.1066 21.7573C63.5159 21.3865 63.5471 20.7541 63.1763 20.3448L61.6941 21.6875ZM65.7595 24.0473C65.5035 23.5579 64.8993 23.3686 64.4099 23.6246C63.9205 23.8806 63.7313 24.4848 63.9873 24.9742L65.7595 24.0473ZM65.4248 28.9559C65.5404 29.4959 66.0719 29.84 66.6119 29.7244C67.152 29.6088 67.4961 29.0773 67.3805 28.5373L65.4248 28.9559ZM50 16.5C54.6375 16.5 58.8065 18.4999 61.6941 21.6875L63.1763 20.3448C59.9256 16.7563 55.2256 14.5 50 14.5V16.5ZM63.9873 24.9742C64.6357 26.2139 65.1239 27.5501 65.4248 28.9559L67.3805 28.5373C67.0411 26.9518 66.4904 25.4448 65.7595 24.0473L63.9873 24.9742Z" fill="white"/><rect x="20" y="36" width="60" height="16" rx="1" fill="#5C6BC0"/><defs><filter id="topGlowingBulb02Filter0" x="22" y="5" width="56" height="47" filterUnits="userSpaceOnUse" color-interpolation-filters="sRGB"><feFlood flood-opacity="0" result="BackgroundImageFix"/><feColorMatrix in="SourceAlpha" type="matrix" values="0 0 0 0 0 0 0 0 0 0 0 0 0 0 0 0 0 0 127 0"/><feOffset/><feGaussianBlur stdDeviation="4"/><feColorMatrix type="matrix" values="0 0 0 0 1 0 0 0 0 1 0 0 0 0 1 0 0 0 0.5 0"/><feBlend mode="normal" in2="BackgroundImageFix" result="effect1_dropShadow"/><feBlend mode="normal" in="SourceGraphic" in2="effect1_dropShadow" result="shape"/><feColorMatrix in="SourceAlpha" type="matrix" values="0 0 0 0 0 0 0 0 0 0 0 0 0 0 0 0 0 0 127 0" result="hardAlpha"/><feOffset/><feGaussianBlur stdDeviation="2"/><feComposite in2="hardAlpha" operator="arithmetic" k2="-1" k3="1"/><feColorMatrix type="matrix" values="0 0 0 0 1 0 0 0 0 1 0 0 0 0 1 0 0 0 0.5 0"/><feBlend mode="normal" in2="shape" result="effect2_innerShadow"/></filter></defs></g><g transform="translate(25, 44)"><path fill-rule="evenodd" clip-rule="evenodd" d="M0 18C0 8.05888 8.05888 0 18 0H112C121.941 0 130 8.05888 130 18V45.1483C130 49.6831 129.229 54.1848 127.72 58.4611L110.239 107.991C107.699 115.187 100.896 120 93.2647 120H36.7353C29.1036 120 22.3014 115.187 19.7614 107.991L2.28038 58.4611C0.771117 54.1848 0 49.6831 0 45.1483L0 18Z" fill="#0076DE"/><mask id="faceSquare03Mask0" mask-type="alpha" maskUnits="userSpaceOnUse" x="0" y="0" width="130" height="120"><path fill-rule="evenodd" clip-rule="evenodd" d="M0 18C0 8.05888 8.05888 0 18 0H112C121.941 0 130 8.05888 130 18V45.1483C130 49.6831 129.229 54.1848 127.72 58.4611L110.239 107.991C107.699 115.187 100.896 120 93.2647 120H36.7353C29.1036 120 22.3014 115.187 19.7614 107.991L2.28038 58.4611C0.771117 54.1848 0 49.6831 0 45.1483L0 18Z" fill="white"/></mask><g mask="url(#faceSquare03Mask0)"><rect x="-2" y="-2" width="134" height="124" fill="#3949AB"/><path fill-rule="evenodd" clip-rule="evenodd" d="M0.880859 128.092C5.24177 97.4016 13.9384 123.534 34.866 118.124C44.1119 115.734 36.6414 105.296 43.5373 100.772C49.3622 96.9503 57.3002 100.029 63.9726 97.5579C73.6018 93.9913 73.4753 86.7354 82.4474 85.651C90.9322 84.6255 99.8208 88.005 108.378 86.7354C124.529 84.3395 117.907 52.7111 130.018 47.1252C142.129 41.5393 162.068 51.1858 164.678 67C167.222 82.4167 150.22 139.78 150.22 139.78H0.880859" fill="black" fill-opacity="0.2"/><path fill-rule="evenodd" clip-rule="evenodd" d="M45.9268 128C83.6043 128 87.5268 113.25 106.065 106.493C124.603 99.7354 140.846 117.214 147.078 100.233C153.31 83.2528 153.276 136.181 153.276 136.181H45.9268L45.9268 128Z" fill="black" fill-opacity="0.1"/><path fill-rule="evenodd" clip-rule="evenodd" d="M7.99964 10.8673C19.7328 9.74652 15.9616 22.8061 20.597 22.8061C22.4461 22.8061 24.6249 14.3489 27.9829 14.3489C30.4376 14.3489 29.9749 19.8425 35.3046 19.2617C40.3073 18.7166 39.375 15.2687 41.9023 15.2687C47.345 15.2687 45.2869 35.4636 49.6437 35.4636C54.0005 35.4636 55.3734 20.668 57.2911 14.8164C59.7177 7.4119 74.2632 3.26163 63.8919 0.320129H7.71289" fill="black" fill-opacity="0.4"/></g></g><g transform="translate(52, 124)"><rect x="24" y="6" width="27" height="8" rx="4" fill="black" fill-opacity="0.8"/></g><g transform="translate(38, 76)"><rect y="4" width="104" height="42" rx="4" fill="black" fill-opacity="0.8"/><rect x="28" y="25" width="10" height="11" rx="2" fill="#8BDDFF"/><rect x="66" y="25" width="10" height="11" rx="2" fill="#8BDDFF"/><path fill-rule="evenodd" clip-rule="evenodd" d="M21 4H29L12 46H4L21 4Z" fill="white" fill-opacity="0.4"/></g></g></svg>